<?xml version="1.0" encoding="UTF-8" standalone="no"?>
<!-- Created with Inkscape (http://www.inkscape.org/) -->

<svg
   version="1.1"
   id="svg1"
   width="99"
   height="89"
   viewBox="0 0 99 89"
   sodipodi:docname="Logo completo.svg"
   inkscape:version="1.3 (0e150ed6c4, 2023-07-21)"
   inkscape:export-filename="..\Users\Mauro\Desktop\app\assets\Logo_blanco.png"
   inkscape:export-xdpi="1241.2122"
   inkscape:export-ydpi="1241.2122"
   xml:space="preserve"
   xmlns:inkscape="http://www.inkscape.org/namespaces/inkscape"
   xmlns:sodipodi="http://sodipodi.sourceforge.net/DTD/sodipodi-0.dtd"
   xmlns="http://www.w3.org/2000/svg"
   xmlns:svg="http://www.w3.org/2000/svg"><defs
     id="defs1"><rect
       x="30.659708"
       y="30.107281"
       width="46.403881"
       height="32.31699"
       id="rect7" /><linearGradient
       id="swatch50"
       inkscape:swatch="solid"><stop
         style="stop-color:#ffffff;stop-opacity:1;"
         offset="0"
         id="stop50" /></linearGradient><linearGradient
       id="swatch49"
       inkscape:swatch="solid"><stop
         style="stop-color:#000000;stop-opacity:1;"
         offset="0"
         id="stop49" /></linearGradient></defs><sodipodi:namedview
     id="namedview1"
     pagecolor="#ffffff"
     bordercolor="#000000"
     borderopacity="0.25"
     inkscape:showpageshadow="2"
     inkscape:pageopacity="0.0"
     inkscape:pagecheckerboard="0"
     inkscape:deskcolor="#d1d1d1"
     inkscape:zoom="3.6203867"
     inkscape:cx="31.350242"
     inkscape:cy="33.836165"
     inkscape:window-width="1366"
     inkscape:window-height="745"
     inkscape:window-x="-8"
     inkscape:window-y="-8"
     inkscape:window-maximized="1"
     inkscape:current-layer="g1"
     inkscape:export-bgcolor="#ffffff00"
     showgrid="false" /><g
     inkscape:groupmode="layer"
     inkscape:label="Image"
     id="g1"><path
       id="path3"
       style="fill:#dfdfdf;fill-opacity:1;stroke-width:10.132;paint-order:stroke fill markers"
       d="M 48.685848,0.80380905 A 19.496754,17.428919 0 0 0 29.183995,18.227321 a 19.496754,17.428919 0 0 0 1.86834,7.092651 l -0.102001,0.117765 -0.002,-0.0058 a 24.814053,24.814055 0 0 0 -1.986093,2.298149 24.814053,24.814055 0 0 0 -0.213896,0.278668 24.814053,24.814055 0 0 0 -1.566119,2.376648 24.814053,24.814055 0 0 0 -0.211967,0.392534 24.814053,24.814055 0 0 0 -1.210898,2.476741 24.814053,24.814055 0 0 0 -0.227689,0.618206 24.814053,24.814055 0 0 0 -0.812494,2.400196 24.814053,24.814055 0 0 0 -0.24731,1.130428 24.814053,24.814055 0 0 0 -0.414083,2.064602 24.814053,24.814055 0 0 0 -0.235487,3.275496 24.814053,24.814055 0 0 0 0.257078,3.530625 24.814053,24.814055 0 0 0 1.986101,6.774726 24.814053,24.814055 0 0 0 15.580681,13.504301 24.814053,24.814055 0 0 0 6.990604,1.002855 24.814053,24.814055 0 0 0 6.9906,-1.002855 24.814053,24.814055 0 0 0 3.316712,-1.23837 A 24.814053,24.814055 0 0 0 73.449303,42.743536 24.814053,24.814055 0 0 0 73.221614,39.462149 24.814053,24.814055 0 0 0 72.8173,37.454464 24.814053,24.814055 0 0 0 72.55234,36.257308 24.814053,24.814055 0 0 0 71.790867,34.002345 24.814053,24.814055 0 0 0 71.492536,33.203586 24.814053,24.814055 0 0 0 70.340522,30.840668 24.814053,24.814055 0 0 0 70.083443,30.371661 24.814053,24.814055 0 0 0 68.468269,27.930249 24.814053,24.814055 0 0 0 68.368196,27.786995 24.814053,24.814055 0 0 0 66.374248,25.48885 19.496754,17.428919 0 0 0 68.183723,18.227417 19.496754,17.428919 0 0 0 48.685789,0.80390548 Z m -0.0496,1.48761245 a 18.315136,15.656487 0 0 1 18.314514,15.6591805 18.315136,15.656487 0 0 1 -2.498324,7.814871 c 0.03102,0.01677 0.05672,0.04322 0.08636,0.0628 l 0.53383,0.474944 c 0.01048,0.01383 0.02347,0.02557 0.03396,0.0394 v 0.002 c 0.0024,0.0015 0.0054,0.002 0.008,0.004 0.0218,0.01971 0.0423,0.04151 0.06473,0.06096 l 0.002,0.002 c 0.03731,0.02976 0.07466,0.06037 0.111895,0.09027 0.02976,0.02557 0.06037,0.05065 0.08833,0.07848 0.01007,0.0097 0.02138,0.01928 0.03144,0.02935 l 0.004,0.004 c 0.0092,0.008 0.01718,0.01636 0.02725,0.0239 0.01971,0.01509 0.03899,0.03144 0.05916,0.04687 l 0.58089,0.54559 a 23.337025,23.337027 0 0 1 0.01174,0.01425 23.337025,23.337027 0 0 1 6.115303,15.749465 23.337025,23.337027 0 0 1 -23.33275,23.332746 23.337025,23.337027 0 0 1 -0.241398,-0.01551 23.337025,23.337027 0 0 1 -0.241441,0.01551 23.337025,23.337027 0 0 1 -23.332746,-23.332746 23.337025,23.337027 0 0 1 0.125563,-1.642656 l -0.06478,-0.0097 0.149208,-1.09118 A 23.337025,23.337027 0 0 1 31.507943,26.89887 l 0.211968,-0.208068 0.0058,0.008 0.953799,-0.887072 -0.0058,-0.0058 0.174613,-0.102001 -0.700628,-1.197155 0.004,-0.002 A 18.315136,15.656487 0 0 1 30.321832,17.951478 18.315136,15.656487 0 0 1 48.636339,2.2922936 Z m -0.04322,3.3657759 a 14.770269,13.588648 0 0 0 -14.770146,13.5886866 14.770269,13.588648 0 0 0 0.49848,3.257835 l 0.008,-0.002 0.522063,1.493503 a 23.337025,23.337027 0 0 1 13.543554,-4.34312 23.337025,23.337027 0 0 1 0.363062,0.0058 23.337025,23.337027 0 0 1 0.119734,-0.0058 23.337025,23.337027 0 0 1 0.314052,0.02138 23.337025,23.337027 0 0 1 1.252106,0.07848 23.337025,23.337027 0 0 1 10.841117,3.550253 c 0.03144,0.02431 0.05974,0.0545 0.09026,0.08045 l 0.002,-0.002 0.684924,0.461218 c 0.04905,0.0092 0.09856,0.01048 0.147238,0.0239 a 23.337025,23.337027 0 0 1 0.01718,0.0097 l 0.649608,-1.399292 0.002,0.002 A 14.770269,13.588648 0 0 0 63.362918,19.245838 14.770269,13.588648 0 0 0 48.592769,5.6571513 Z m 0.100157,1.4601356 a 13.049212,12.005275 0 0 1 13.047028,12.000981 13.049212,12.005275 0 0 1 -0.298331,2.476736 24.814053,24.814055 0 0 0 -0.712401,-0.449399 24.814053,24.814055 0 0 0 -0.590704,-0.319922 24.814053,24.814055 0 0 0 -2.192161,-1.024454 24.814053,24.814055 0 0 0 -0.85371,-0.319921 24.814053,24.814055 0 0 0 -2.099929,-0.682966 24.814053,24.814055 0 0 0 -1.487608,-0.321892 24.814053,24.814055 0 0 0 -1.595554,-0.31204 24.814053,24.814055 0 0 0 -3.273535,-0.235486 24.814053,24.814055 0 0 0 -3.153812,0.221735 24.814053,24.814055 0 0 0 -2.027321,0.390563 24.814053,24.814055 0 0 0 -1.14612,0.24928 24.814053,24.814055 0 0 0 -2.178432,0.704549 24.814053,24.814055 0 0 0 -0.769329,0.292419 24.814053,24.814055 0 0 0 -2.335423,1.095104 24.814053,24.814055 0 0 0 -0.382682,0.213896 24.814053,24.814055 0 0 0 -0.663346,0.412155 13.049212,12.005275 0 0 1 -0.333672,-2.390395 13.049212,12.005275 0 0 1 13.047028,-12.0009808 z" /><path
       id="rect1"
       style="fill:#dfdfdf;fill-opacity:1;stroke-width:9.15992;paint-order:stroke fill markers"
       d="m 11.051994,28.2638 v 7.090693 H 0.62301817 V 56.031908 H 11.051994 v 5.909239 h 11.81651 V 51.633835 h 3.834821 l -0.694742,-2.099924 h -2.755414 v -8.272148 h 1.715268 v 0.180609 h 0.223706 v -0.180609 h 0.01174 l 0.05484,-0.584843 h 0.008 l 0.109924,-1.450331 H 22.868504 V 28.263787 Z m 64.673843,0 v 10.962797 h -3.593423 a 23.632433,21.859999 0 0 1 0.29833,2.035166 h 2.606269 v 8.272148 h -3.560059 a 23.632433,21.859999 0 0 1 -0.839976,2.099924 h 5.088887 V 61.941147 H 87.54236 V 56.031908 H 98.198995 V 35.354493 H 87.542348 V 28.2638 Z m -62.966424,2.072452 h 8.272148 v 29.83075 h -8.272148 z m 64.675805,0 H 85.7054 v 29.83075 H 77.435218 Z M 2.039972,37.004997 H 10.81649 V 53.988891 H 2.039972 Z m 85.759457,0 h 8.776518 v 16.983894 h -8.776518 z" /><text
       xml:space="preserve"
       id="text1"
       style="font-size:8px;font-family:'Century Schoolbook';-inkscape-font-specification:'Century Schoolbook, Normal';white-space:pre;shape-inside:url(#rect7);opacity:1;fill:#dfdfdf;fill-opacity:1;stroke:#ffffff;stroke-width:13.7272;stroke-linejoin:round;stroke-opacity:0;paint-order:stroke fill markers"
       transform="translate(-1.9334951,-0.82864077)"><tspan
         x="30.660156"
         y="52.168682"
         id="tspan2"><tspan
           style="font-size:24px;font-family:'Bauhaus 93';-inkscape-font-specification:'Bauhaus 93, Normal'"
           id="tspan1">FPG</tspan></tspan></text></g></svg>
